<svg width="43" height="57" viewBox="0 0 43 57" fill="none" xmlns="http://www.w3.org/2000/svg">
<path d="M1.31253 45.4422C2.24295 38.4635 5.98679 32.036 11.5893 27.7753V22.9835C11.5893 14.6896 14.8197 6.89251 20.6838 1.02723L20.7859 0.925203C21.2195 0.4916 21.9203 0.4916 22.3539 0.925203L22.456 1.02723C28.3201 6.89141 31.5505 14.6896 31.5505 22.9835V27.7753C37.153 32.036 40.8968 38.4635 41.8273 45.4422L42.6301 51.466C42.7 51.9917 42.3884 52.494 41.886 52.6637C41.7685 52.7025 41.6487 52.7214 41.5312 52.7214C41.1419 52.7214 40.7693 52.5151 40.5686 52.1625L39.4341 50.1763C37.7796 47.2819 34.8242 45.3878 31.5505 45.0319V46.0676C31.5505 46.6798 31.0537 47.1766 30.4416 47.1766H29.3326V50.5035C29.3326 51.1156 28.8358 51.6124 28.2237 51.6124H22.6789V56.0483H20.4609V51.6124H14.9161C14.304 51.6124 13.8072 51.1156 13.8072 50.5035V47.1766H12.6982C12.0861 47.1766 11.5893 46.6798 11.5893 46.0676V45.033C8.31561 45.3878 5.36023 47.283 3.70566 50.1774L2.5712 52.1636C2.36937 52.5151 1.99787 52.7214 1.60862 52.7214C1.49107 52.7214 1.3713 52.7025 1.25375 52.6626C0.751396 52.4929 0.439777 51.9917 0.50964 51.4649L1.31253 45.4422ZM21.5699 3.30059C19.24 5.79132 17.4058 8.62914 16.1027 11.6899H27.0371C25.734 8.62914 23.8998 5.79132 21.5699 3.30059ZM39.7846 46.9004L39.6293 45.7349C38.8541 39.9173 35.9331 34.5311 31.5505 30.6631V42.7995C34.7255 43.0834 37.6709 44.5594 39.7846 46.9004ZM16.0251 49.3945H27.1147V47.1766H16.0251V49.3945ZM13.8072 44.9587H29.3326V22.9835C29.3326 19.8518 28.8314 16.7977 27.8765 13.9078H15.2621C14.3084 16.7977 13.8072 19.8518 13.8072 22.9835V44.9587ZM11.5893 42.8006V30.6631C7.20665 34.5322 4.28676 39.9184 3.51049 45.7349L3.35523 46.9004C5.46891 44.5594 8.41431 43.0834 11.5893 42.8006Z" fill="#5051DB"/>
</svg>
