<svg width="54" height="54" viewBox="0 0 54 54" fill="none" xmlns="http://www.w3.org/2000/svg">
<path d="M49.3598 41.6003H45.0598V33.9825C45.0598 25.9096 41.9165 18.3201 36.2079 12.6123C36.047 12.4506 35.8286 12.3603 35.5998 12.3603H34.7398V9.90676L37.2837 1.42716C37.3732 1.12616 37.2932 0.800218 37.0722 0.575758C36.8511 0.352158 36.5226 0.267018 36.2242 0.353018L30.5258 1.98186L27.3851 0.411498C27.1435 0.290238 26.8579 0.290238 26.6154 0.411498L23.4738 1.98186L17.7755 0.353878C17.4762 0.268738 17.1485 0.353018 16.9275 0.576618C16.7065 0.800218 16.6257 1.12702 16.716 1.42802L19.2598 9.90676V12.3603H18.3998C18.1711 12.3603 17.9526 12.4506 17.7918 12.6123C12.3205 18.0845 9.20988 25.2973 8.96392 33.0003H8.07984H1.19984C0.724264 33.0003 0.339844 33.3856 0.339844 33.8603V52.7803C0.339844 53.2551 0.724264 53.6403 1.19984 53.6403H8.07984C8.55542 53.6403 8.93984 53.2551 8.93984 52.7803V51.9203H13.2398C13.7154 51.9203 14.0998 51.5351 14.0998 51.0603V50.2003H19.8593L24.8025 53.4959C24.9453 53.5905 25.1113 53.6403 25.2798 53.6403C25.3409 53.6403 25.4028 53.6335 25.4639 53.6206L52.9839 47.6006C53.3786 47.5137 53.6598 47.1645 53.6598 46.7603V45.9003C53.6598 43.5293 51.7309 41.6003 49.3598 41.6003ZM23.3242 3.7268C23.5315 3.78614 23.7533 3.7655 23.9451 3.66918L26.9998 2.14182L30.0554 3.66918C30.2472 3.7655 30.4682 3.78614 30.6763 3.7268L35.1845 2.43852L33.24 8.92034H30.629L31.2835 5.6489L29.597 5.31178L28.8746 8.92034H25.125L24.4026 5.31178L22.717 5.6489L23.3706 8.92034H20.7597L18.8152 2.43938L23.3242 3.7268ZM20.9798 10.6403H33.0198V12.3603H20.9798V10.6403ZM7.21984 51.9203H2.05984V34.7203H7.21984V51.0603V51.9203ZM12.3798 50.2003H8.93984V34.7203H12.3798V50.2003ZM10.6839 33.0003C10.9256 25.8735 13.7662 19.1956 18.7593 14.0803H35.2404C40.4666 19.4338 43.3398 26.4867 43.3398 33.9825V41.6003H29.4895C29.3924 41.2194 29.2169 40.8599 28.9581 40.558L24.2117 35.0213C24.0492 34.8296 23.811 34.7203 23.5598 34.7203H14.0998V33.8603C14.0998 33.3856 13.7154 33.0003 13.2398 33.0003H10.6839ZM51.9398 46.068L25.4527 51.8619L20.5971 48.6248C20.4561 48.5311 20.2893 48.4803 20.1198 48.4803H14.0998V36.4403H23.1642L27.6534 41.6769C27.7859 41.8325 27.8598 42.0312 27.8598 42.2359V43.3203C27.8598 43.7942 27.4746 44.1803 26.9998 44.1803H25.9919C25.7657 44.1803 25.5439 44.0883 25.3839 43.9284L21.5879 40.1323L20.3718 41.3484L24.1679 45.1444C24.6546 45.632 25.3031 45.9003 25.9919 45.9003H26.9998C28.4223 45.9003 29.5798 44.7428 29.5798 43.3203H49.3598C50.7823 43.3203 51.9398 44.4779 51.9398 45.9003V46.068Z" fill="#5051DB"/>
</svg>
